/* XPM */
static char *result[] = {
/* columns rows colors chars-per-pixel */
"42 57 244 2 ",
"   c #160C35",
".  c #16113D",
"X  c #16174A",
"o  c #171D56",
"O  c #17215E",
"+  c #19205C",
"@  c #172363",
"#  c #182365",
"$  c #1A256C",
"%  c #18276C",
"&  c #1B2775",
"*  c #1A2A74",
"=  c #1D2C7C",
"-  c #27267A",
";  c #222B7D",
":  c #1E2E81",
">  c #1F3187",
",  c #1F3189",
"<  c #232D83",
"1  c #2B2983",
"2  c #2B2A84",
"3  c #2C2C8C",
"4  c #312483",
"5  c #322A8A",
"6  c #243088",
"7  c #21328C",
"8  c #2D2E91",
"9  c #322F98",
"0  c #233593",
"q  c #293294",
"w  c #24379A",
"e  c #2B359A",
"r  c #24399D",
"t  c #263AA2",
"y  c #2938A2",
"u  c #263DAB",
"i  c #293DAC",
"p  c #3235A2",
"a  c #2A3FB2",
"s  c #2B489B",
"d  c #2B41B4",
"f  c #2A49B0",
"g  c #2C43BB",
"h  c #2A48BE",
"j  c #2976B6",
"k  c #2E46C3",
"l  c #2E4BC3",
"z  c #2F47C8",
"x  c #2F49CC",
"c  c #3047C7",
"v  c #314ACD",
"b  c #2F58C8",
"n  c #3147D1",
"m  c #324CD3",
"M  c #344EDB",
"N  c #2F52D1",
"B  c #3355D4",
"V  c #3451DD",
"C  c #335DDD",
"Z  c #2E6BDF",
"A  c #3266DB",
"S  c #2C76D2",
"D  c #3276DB",
"F  c #354FE3",
"G  c #3553E2",
"H  c #335CE2",
"J  c #385EE5",
"K  c #2F64E0",
"L  c #2D6DE2",
"P  c #3362E4",
"I  c #336BE4",
"U  c #2C74E2",
"Y  c #267CE2",
"T  c #2A7BE3",
"R  c #3372E3",
"E  c #3379E3",
"W  c #3879E3",
"Q  c #4F7ADD",
"!  c #6C71DA",
"~  c #7A77DB",
"^  c #7D7FE2",
"/  c #8A71DA",
"(  c #847BE1",
")  c #2591BA",
"_  c #1F93DE",
"`  c #238CDF",
"'  c #2B88DC",
"]  c #3989DF",
"[  c #2993DE",
"{  c #3593DC",
"}  c #2EACDE",
"|  c #29B5DA",
" . c #1E8BE2",
".. c #1E93E1",
"X. c #009AFE",
"o. c #089AFE",
"O. c #169BFE",
"+. c #1C9CFE",
"@. c #2485E2",
"#. c #2A84E2",
"$. c #228DE1",
"%. c #2A8CE2",
"&. c #3383E4",
"*. c #3A83E3",
"=. c #328DE5",
"-. c #2393E2",
";. c #2C92E2",
":. c #239AE4",
">. c #299DE7",
",. c #3394E2",
"<. c #3B94E2",
"1. c #3598E7",
"2. c #319BEC",
"3. c #289BF1",
"4. c #249DFE",
"5. c #2B9EFE",
"6. c #3B9FF5",
"7. c #339EFD",
"8. c #22A3E5",
"9. c #28A7E7",
"0. c #2CACEB",
"q. c #38A9E8",
"w. c #2CBCE5",
"e. c #24B4EC",
"r. c #27B8EA",
"t. c #30B7E5",
"y. c #2EA0FC",
"u. c #35A1FE",
"i. c #3CA1FD",
"p. c #3CA9FC",
"a. c #33BCF1",
"s. c #4A8BDD",
"d. c #788FDB",
"f. c #71B1DD",
"g. c #5387E3",
"h. c #4395E2",
"j. c #449AE6",
"k. c #4C9BE4",
"l. c #4D9CE9",
"z. c #549EE5",
"x. c #589EE6",
"c. c #5694F5",
"v. c #7B84E4",
"b. c #7989E4",
"n. c #6794EE",
"m. c #779AE6",
"M. c #649AF4",
"N. c #47A8E7",
"B. c #57A4E9",
"V. c #5BA2EB",
"C. c #4FB7EB",
"Z. c #44A3FC",
"A. c #48A6FA",
"S. c #4BA4FC",
"D. c #5CA7F2",
"F. c #5AA7F5",
"G. c #54A6FA",
"H. c #53ABFD",
"J. c #5CABFB",
"K. c #44B9F6",
"L. c #4EB6FE",
"P. c #55B9F4",
"I. c #5DB2FC",
"U. c #5EBBFA",
"Y. c #6DA6E5",
"T. c #63A9E3",
"R. c #62A5EB",
"E. c #64ACEC",
"W. c #6CABEB",
"Q. c #75A7E7",
"!. c #67B4EC",
"~. c #7BB3EB",
"^. c #64AAF4",
"/. c #6CADF3",
"(. c #63ACFB",
"). c #68A9F8",
"_. c #75ADF6",
"`. c #63B5FC",
"'. c #6BB5FB",
"]. c #6CBCFA",
"[. c #74B3F4",
"{. c #77B7F7",
"}. c #73B1F9",
"|. c #27D9DF",
" X c #1FCCE5",
".X c #29C7EA",
"XX c #35C5EC",
"oX c #26D6E8",
"OX c #2AD2EC",
"+X c #25DCEC",
"@X c #39D6E8",
"#X c #2AC6F5",
"$X c #38C9F6",
"%X c #34CBF9",
"&X c #25D4F3",
"*X c #26DBF5",
"=X c #39D4FC",
"-X c #1DEBEE",
";X c #23E4EB",
":X c #29E5E9",
">X c #23EBEC",
",X c #34E8EA",
"<X c #25E4F2",
"1X c #23E9F0",
"2X c #66CADF",
"3X c #52CCE8",
"4X c #4DD1E9",
"5X c #48C9F8",
"6X c #57CAF9",
"7X c #4AD2F7",
"8X c #56D4F8",
"9X c #5ED5FC",
"0X c #6FC7E8",
"qX c #66C8F8",
"wX c #6CCAFB",
"eX c #76C8F9",
"rX c #64D3FB",
"tX c #69D5F8",
"yX c #79D6F8",
"uX c #8587DA",
"iX c #8C83DD",
"pX c #8A91DC",
"aX c #8486E2",
"sX c #848AE3",
"dX c #8A8BE2",
"fX c #968AE0",
"gX c #849BE7",
"hX c #9695E4",
"jX c #84A2EC",
"kX c #94A9E8",
"lX c #87B5E9",
"zX c #95BCEA",
"xX c #84B8F4",
"cX c #A8A9E4",
"vX c #9DC7ED",
"bX c #8FC7F4",
"nX c #85C9F5",
"mX c #9DD9F5",
"MX c #A4C4EA",
"NX c #B5CEEB",
"BX c #B8D3ED",
"VX c #ACDBF3",
"CX c #AEE3F6",
"ZX c #C9E7F6",
/* pixels */
"X.X.X.X.X.X.X.X.+.5.p.'.'.L.L.L.L.L.L.L.6XeX].H.J.u.X.X.X.X.X.X.X.X.X.X.X.X.X.X.X.X.",
"X.X.X.X.X.X.X.X.X.+.I.eXyXrX9XrXrX9X9XrX9XyXnX`.S.5.X.X.X.X.X.X.X.X.X.X.X.X.X.X.X.X.",
"X.X.X.X.X.X.X.X.X.5.U.wX8X=X=X=X=X=X=XtXyXyXrX6XL.p.6.Z.6.+.X.X.X.X.X.X.X.X.X.X.X.X.",
"X.X.X.X.X.X.X.X.4.u.`.yXqX9XrXrX5X%X8XmXZXZXyX8X8XP.E.{.}.7.X.X.X.X.X.X.X.X.X.X.X.X.",
"X.X.X.X.X.X.X.X.X.4.J.].'.].].~.E.q.a.0XmXCXtX=X&X#XC.W.).Z.4.+.O.X.X.X.X.X.X.X.X.X.",
"X.X.X.X.X.X.X.X.+.S.(.J.J.D.W.x.<.-.:.[ q.5X=X*X*X&X0.1.l.F.G.A.S.7.X.X.X.X.X.X.X.X.",
"X.X.X.X.X.X.X.O.7.).xXxXzXvXzXV.;.-. .` [ :.0.#X<X-X X>.2.B.W.R.^.G.+.X.X.X.X.X.X.X.",
"X.X.X.X.X.X.X.4.J.[.xXMXMXNXMXY.,. . .` ' U E 0.OX-X;X.Xe.;.<.h.x.^.7.X.X.X.X.X.X.X.",
"X.X.X.X.X.X.X.5.(.xXlXBXMXY.x.] #.T T U Z H H I 2.+X>X1X&X8._ _ k.V.A.7.5.X.X.X.X.X.",
"X.X.X.X.X.X.X.5.J./.Q.zX~.,.` U P H H J G G G G E 0.+X:X;Xr.8._ ,.k.B.J.(.7.X.X.X.X.",
"X.X.X.4.o.X.X.6.F.B.k.k.<.#.T P G G F F G G G V H R 0.OX>XOX8.@.` ,.V.lXxX(.4.X.X.X.",
"X.4.A.H.u.X.X.6.l.{ ' ` Y L H G G G F F F F V m m G W w.>X;X0.#.$.%.h.~.bX).4.X.X.X.",
"5.Z.].].Z.4.u.A.l.;.@.T L P P G G G M m m v v z l b b } +X>X.X9.$. .%.W.xX(.7.X.X.X.",
"u.S.].6Xp.u.G.F.j.;.%.&.2.0.2.R G M m z g g g g g h h ' | ;XOX0.#.$.[ z.[.[.J.J.A.+.",
"+.u.H.Z.Z.H.B.j.;.8.e.r.#X*X.X,.B x k g d d u d d i u f ) |.XX=.Z Y ` ,.B./.].eXI.u.",
"X.X.4.u.J./.j.;.:.e.*X<X;XoX0.D N g g a t r r t r r e s ) oX9.A C Z T #.k.[.wXwXwXJ.",
"X.X.X.6./.W.,.:.e.&X:X:X.X,.A m k d u t r r t r r w e r j | { B F V P W l.[.eXrXwX].",
"X.X.X.A.W.l.;.8.r.<X+Xw.&.A x a t r r w r r w 0 q 3 3 3 s j j b V G J D n.~.].6XrX6X",
"X.X.X.A.R.,.8.#X;X-XoX;.H x u r r t r , , , , , 6 3 q 4 5 p a n M G I &.x./.'.eXqX6X",
"X.X.O.A.V.,.8.&X1X>XXX&.B g r r u u w , : & & & : , 0 8 4 9 p c F H U @.<.k.P.8X8XL.",
"X.4.Z.G.V.{ e.&X<X.X=.C k t 0 r w w 7 < & $ # $ * : 0 q q q i z M G H U #.-.a.%X7XI.",
"7.S.).x.z.9.r.+X+X0.A v g i t t r , < & $ @ # # % : 0 w 0 0 i z V G G U ` ..e.$XP.gX",
"(.S.F.F.B.w.oX;Xr.E B m c a y e 7 < ; $ @ # # # % = , 7 0 w a z m G G L @.-.e.P.d.( ",
"J.u.i.F.!.OX>X:X0.H M x a p 5 5 2 - - # # # # # $ % = < 0 a a k v M G U $.8.a.!.uXb.",
"+.7.(.xXeX4X:XoX;.H m k p 5 4 2 < - $ # @ @ o O @ $ = : 0 i a k v M G U :.e.%XE.^ n.",
"O.Z.}.kXkX2X@X{ L V m g 9 4 4 < ; ; $ @ + o X o @ $ : 6 , 0 y a c M G U :.#X%X/.aXn.",
"5.c.jXfXgXT.0.Z G m z a p 9 8 6 = * # o X .   X o @ : 7 0 , 0 t l M G U >.a.6Xm.( n.",
").m.hXdX2XC.;.P M x k g p y w 7 : * @ X       X o @ = 7 w 0 0 t k V G U >.a.Y.iXdXM.",
"M.sX/ Q.4X.X' B M x k d s w 0 , : * @ o .     X O @ = , w r r a x F G U 8.K.m.dXgX).",
"c.v.gXP.w.8.#.H F x k d t , 0 , = * @ O o X X o @ % : , w r a z M F H &.0.K.Y.aXM.7.",
"c.^ aXV.q.-.T H F m z h r 7 0 , : * % @ O O O @ @ $ = > 7 r d x M F H 2.#X5Xm.aXc.X.",
"c.~ / ~ s.` T H F F N k r 7 0 , > * % @ # @ @ @ @ # * = , w u k F F H 2.#X5Xm.aXc.X.",
"c.( / b.s.,.T H G G M k u r w 0 0 : & @ # @ # @ @ $ ; = 6 t d g V G H 2.#X5Xm.sXM.4.",
"n.aXhXvXzXY.W H G G m m k g i 0 7 6 = $ # @ # # # * ; ; 3 d f g V G J 2.#X6Xm.sXM.7.",
"c.sXcXZXZXMXs.H G G F M v g a q : : = % # @ # # $ = ; - 9 i i k F G I 2.C.!.fXdXM.7.",
"c.b.jXnXvX~.W H G F G M m z d q : < : * $ $ % & ; = ; 3 q y a v V P 2.XX3XgXhXjX).7.",
"G.Q.I.$XN.<.#.L H G F G G x a 0 < < < = = * = = ; - 2 7 e y a v P =..X>X@XT.jXxX(.7.",
"`.wX$X#Xq.%.$.@.L H J G F n a e < 1 - < : : : ; - - 3 q y i g B ] w.+X-XoXN.E.[.(.Z.",
"wXyX8X6X[.z.%.@.L &.1.W D A l i 8 4 4 - < : : ; 3 8 e r i g v D 9.oX|.r.| <.D.H.Z.7.",
"J.eXrX9XeXQ.h.#.T 2.#Xw.w.{ A c a y 9 q 2 ; : , 7 r s u d g b 2.OXoXr._ ,.z.^.A.X.X.",
"7.J.eX6X].'.l.*.W i.$X*X:Xw.D m k g u r 0 , , , 0 r d d g h S w.oX X8.;.k.R.J.i.X.X.",
"X.H.wX6XL.i.j.,.] g.W.3X,X.X*.C x d t u y w 0 w w 0 i f l S | OX.X8...,.x.D.Z.X.X.X.",
"4.I.eX5XK.+.3.,.s.! ^ Q.4X:X.X] m d t a a i t w q , p d l D 9.t.} _ ;.z.W.J.7.X.X.X.",
"+.H.wX6XK.5.q.<.%.Q ! ~ 2X,XoX=.B x g g g a r 0 7 w d g h A U ' `  .<.W.{.G.5.X.X.X.",
"+.H.wX6XL.7.6.<.%.&.! ! pX2X@X{ P V m k g d 0 7 r d c v m C T ` ` { z.W.}.S.4.X.X.X.",
"X.i.`.`.i.Z.V.B.<.' D ! / f.3XXX=.H M n k d 0 u l m M V C Z `  .` k.Q.[.S.5.X.X.X.X.",
"X.+.y.u.5.S.(.D.B.{ ' s.! d.f.3Xt.D H M x a u k m G H P L @.$. .,.z.[.).5.X.X.X.X.X.",
"X.X.X.X.X.4.7.S./.W.{ ' Q d.m.3X:X.X=.P G M N V V C T @.` ` $.{ k.W.^.Z.+.4.7.5.7.7.",
"X.X.X.X.X.X.X.i.}.~.k.%.%.] N.@X<X+X#X2.I G G H K U @. .$.-.[ k.W./.Z.4.y.H.U.I.H.Z.",
"X.X.X.X.X.X.X.S.'._.V.j.,.V.~.nX8X=X<XOX0.E R T @.$.` ....%.h.Y.xXJ.i.S.I.].qXqX].H.",
"X.X.X.X.X.X.X.i.G.S.F.V.k.lXNXZXVX0X4X+X#X9.>.-.$.` _ [ %.z.~.nXnX{.H.I.{.eXqXqX`.Z.",
"X.X.X.X.X.X.X.X.X.7.G.^.R.~.zXBXBXzXC.#X&X#X#Xe.8.:.<.Q.zXvXvXmXwXeX].S.I.`.H.i.i.4.",
"X.X.X.X.X.X.X.X.X.+.5.Z.}.xXQ.W.Y.x.k.D.P.P.=X#Xr.e.P.bXVXVXyX8XrXeX].i.u.u.X.X.X.X.",
"X.X.X.X.X.X.X.X.X.X.X.7.).}./.R.R.V.R.gXpXsXW.5X%X%X$X8XeXxX~.xXnX].A.X.X.X.X.X.X.X.",
"X.X.X.X.X.X.X.X.X.X.X.X.S.).}.).J.G.J.M.gXfXiXm.^.E.E.E.m.dXhXzXbXH.+.X.X.X.X.X.X.X.",
"X.X.X.X.X.X.X.X.X.X.X.X.X.i.S.Z.S.7.7.)._.Q.uXv.v.b.b.v.v.sXjX_.(.i.X.X.X.X.X.X.X.X.",
"X.X.X.X.X.X.X.X.X.X.X.X.X.X.X.X.X.X.X.X.X.X.X.X.X.X.X.X.X.X.X.X.X.X.X.X.X.X.X.X.X.X."
};
