/* XPM */
static char *result[] = {
/* columns rows colors chars-per-pixel */
"42 57 235 2 ",
"   c #160B34",
".  c #17113D",
"X  c #161647",
"o  c #171D55",
"O  c #17215D",
"+  c #18215E",
"@  c #172363",
"#  c #182365",
"$  c #1A256B",
"%  c #19286D",
"&  c #1D2773",
"*  c #1B2973",
"=  c #1D2D7C",
"-  c #27267A",
";  c #222A7D",
":  c #1E2E82",
">  c #1F3087",
",  c #1F328A",
"<  c #232D84",
"1  c #262C87",
"2  c #2B2983",
"3  c #2C2D8C",
"4  c #312786",
"5  c #253188",
"6  c #22328D",
"7  c #322E95",
"8  c #233594",
"9  c #293395",
"0  c #2E3095",
"q  c #24369A",
"w  c #2A369C",
"e  c #25399D",
"r  c #263AA2",
"t  c #293AA6",
"y  c #273CA9",
"u  c #293DAC",
"i  c #3139AA",
"p  c #2B3EB1",
"a  c #2C4298",
"s  c #294FAB",
"d  c #2A41B4",
"f  c #2C43BC",
"g  c #2E4ABC",
"h  c #286EB0",
"j  c #2E45C3",
"k  c #2F47C7",
"l  c #2F49CA",
"z  c #314AC5",
"x  c #304ACD",
"c  c #2E58C8",
"v  c #3053CD",
"b  c #305CCA",
"n  c #2F4DD2",
"m  c #324CD3",
"M  c #334EDB",
"N  c #325AD4",
"B  c #3452DD",
"V  c #325BDC",
"C  c #3369D7",
"Z  c #3262DE",
"A  c #2D76DC",
"S  c #3177D8",
"D  c #344FE1",
"F  c #3553E2",
"G  c #345BE2",
"H  c #2D6CE2",
"J  c #3362E3",
"K  c #336BE1",
"L  c #2C75E2",
"P  c #267BE2",
"I  c #2C7BE3",
"U  c #3374E4",
"Y  c #327CE4",
"T  c #387AE5",
"R  c #527ADD",
"E  c #6776DB",
"W  c #7672DB",
"Q  c #7E7FE2",
"!  c #8875DB",
"~  c #2795C5",
"^  c #278ADC",
"/  c #3588DE",
"(  c #2A99DA",
")  c #2BA7D6",
"_  c #1E9DE2",
"`  c #009AFE",
"'  c #0A9AFE",
"]  c #149BFE",
"[  c #1B9CFE",
"{  c #2684E2",
"}  c #2B84E3",
"|  c #238CE1",
" . c #2B8EE3",
".. c #3285E3",
"X. c #3786E5",
"o. c #338BE2",
"O. c #2392E1",
"+. c #2C92E2",
"@. c #249CE4",
"#. c #2B9AE5",
"$. c #3493E3",
"%. c #3C95E3",
"&. c #3D9AE5",
"*. c #329BEB",
"=. c #369AE8",
"-. c #2A9DF6",
";. c #249DFE",
":. c #2B9EFE",
">. c #3696FA",
",. c #339EFD",
"<. c #3998F8",
"1. c #3A9CFB",
"2. c #2DACE3",
"3. c #27A7E8",
"4. c #35A7E8",
"5. c #32A2ED",
"6. c #2AB7E7",
"7. c #24B2EC",
"8. c #2BB3EB",
"9. c #3AB6EB",
"0. c #2CA1FD",
"q. c #35A2FD",
"w. c #3CA1FD",
"e. c #3EAFFE",
"r. c #28BBF2",
"t. c #37BCF2",
"y. c #4B88DE",
"u. c #7C85D9",
"i. c #7490DD",
"p. c #76ABDE",
"a. c #4A87E2",
"s. c #4496E4",
"d. c #4899E6",
"f. c #4C9AE4",
"g. c #549DE3",
"h. c #579DE7",
"j. c #499AF9",
"k. c #5797F5",
"l. c #6B8CED",
"z. c #7989E7",
"x. c #6A99E9",
"c. c #749DE6",
"v. c #7697E9",
"b. c #6B95F2",
"n. c #669DF5",
"m. c #4BA7E9",
"M. c #5CA2E6",
"N. c #5BA3EC",
"B. c #58AAE9",
"V. c #47B7E9",
"C. c #57B6EE",
"Z. c #48A5F7",
"A. c #43A4FC",
"S. c #4CA4FC",
"D. c #4CAAFD",
"F. c #53A4F4",
"G. c #5BA6F4",
"H. c #5CAAF4",
"J. c #54A5FA",
"K. c #54ACFC",
"L. c #5AABFC",
"P. c #4BBBF4",
"I. c #57B8F7",
"U. c #5CB4FC",
"Y. c #51BAFD",
"T. c #64A3E5",
"R. c #6AA7E6",
"E. c #62A5EB",
"W. c #6CABED",
"Q. c #76A8E9",
"!. c #68B7E6",
"~. c #7CB3EC",
"^. c #6BADF2",
"/. c #68ABF7",
"(. c #63ACFA",
"). c #73AAF5",
"_. c #69B7F7",
"`. c #63B4FC",
"'. c #65BCFB",
"]. c #6ABBFA",
"[. c #72B2F4",
"{. c #76B8F7",
"}. c #74B2F9",
"|. c #26C3D5",
" X c #27C6E8",
".X c #29CDEB",
"XX c #34C6E8",
"oX c #27D7E9",
"OX c #24DCEC",
"+X c #36D7ED",
"@X c #2BC6F5",
"#X c #39C8F7",
"$X c #29D5F3",
"%X c #35D8F7",
"&X c #26E7EB",
"*X c #23E5ED",
"=X c #35E3E7",
"-X c #25E1F3",
";X c #4BCAEA",
":X c #57CCE6",
">X c #45D4E9",
",X c #48C6F8",
"<X c #58C8F9",
"1X c #53D9F3",
"2X c #53D4FB",
"3X c #5AD2FB",
"4X c #65C4E6",
"5X c #72C4ED",
"6X c #6DC5FB",
"7X c #67C8F8",
"8X c #74C7F8",
"9X c #68D4F9",
"0X c #75D5F9",
"qX c #8888DE",
"wX c #8C92DE",
"eX c #80A2DD",
"rX c #828CE2",
"tX c #898BE2",
"yX c #8795E7",
"uX c #929AE4",
"iX c #89A6EA",
"pX c #92ABEC",
"aX c #83B4EB",
"sX c #87B7E9",
"dX c #96BAEA",
"fX c #86B8F3",
"gX c #87C6EE",
"hX c #86CAF4",
"jX c #86D9F7",
"kX c #9DD1F0",
"lX c #A6C5EA",
"zX c #B8D4EF",
"xX c #A4DAF4",
"cX c #ABE5F9",
"vX c #C2DEF2",
/* pixels */
"` ` ` ` ` ` ` ` ` [ ;.' D.'.U.k.k.k.b.k.k./.1.] j.(.:.` ` ` ` ;.:.' ` ` ` ` ` ` ` ` ",
"` ` ` ` ` ` ` ' 0.w.A.q.U.6X'.n.l.l.l.l.b.n.j.:.A.L.,.` ` ` ` :.w.[ ` ` ` ` ` ` ` ` ",
"` ` ` ` ` ` ` ] A.U.`.U.'.0X7XQ.tXtX! Q rXyXE.S.1.S.A.] ` ` ' w.D.0.` ` ` ` ` ` ` ` ",
"` ` ` ` ` ` ` ;.U.6X6X6X7X3X,X[.uXwX! Q z.tXyX).S.J.L.:.' ` [ K.].Z.` ` ` ` ` ` ` ` ",
"` ` ` ` ` ` ` ;.I.<X7X<X7X2X#X'.zXdXW x.R.wXwXpX(.F.G.w.,.,.:.K.6XK.] ` ` ` ` ` ` ` ",
"` ` ` ` ` ` ` ;.K.,X,X<X7X7X9.5XvXdXi.M.P.Q.wXpX_.B.M.m.F.F.A.A.I.D.] ` ` ` ` ` ` ` ",
"` ` ` ` ` ` ` 0.w.D.e.Y.{.!.4.[.vXaXa.&.XX:Xi.sX4XB.g.M.N.W.L.A.w.q.` ` ` ` ` ` ` ` ",
"` ` ` ` ` ` ' w.A.q.0.A.[.N.$.T.lXR.o.+.2.;X!.4X;X9.=.&.d.E.^.D.q.[ ` ` ` ` ` ` ` ` ",
"` ` ` ` ` ` ] S.F.w.-.Z.N.s. .s.Q.a.{ { ( 4.V.>X&X X3.@.#.f.M.J.,.' ` ` ` ` ` ` ` ` ",
"` ` ` ` [ :.;.J.N.=.*.=.s. .{ Y T U L P L ^ =.XX&XOX X7.3.#.&.m.Z.;.] ] ' ` ` ` ` ` ",
"` ` ` ` :.S.S.J.g.%.$.o.X.} P K G V G G G V U 2.OXOXoX$Xr.3.$.d.F.w.1.:.:.] ` ` ` ` ",
"` ` ` ` w././.E.s.$.o.X.Y I H G F F F F B B G o.6. X-X-X$X7.#.=.d.F.J.L.S.:.` [ ` ] ",
"` ` ` [ w.}.[.M.$...R a.$.Y J F F F F M m m M J ..4..X&X*X X7._ %.d.H.}.(.A.[ 0.] [ ",
"` ` ` :.Z./.R.f. .R E h.5.*.G D F D D m x x m M F U 8.-X*XOXr._  .%.N.~.{.(.w.w.q.0.",
"` ` ' 1.J.N.f./ / E W W.#X*.G F D m m x j j k m M V A 6.oX-XOX7.|  .M.pXfX}.L.U.Y.A.",
"` ` ;.S.G.f.$./ E W i.C.%X*.G F D m j j p j p j x v N o.8.OX$X3.P ^ R.lXdX}._.8X6X`.",
"` ;.S./.M.%.^ y.W i.!.>X$Xo.D D m k p u d d i i z x l C o.XX-X8.I } T.lXlX[.].9X8X].",
"` w./.[.M.s./ u.u.p.:X=X.X..M m m f r e e t w 7 i f f x Z 2.OX XI I h.dXlXaX/.3X9X].",
"] J.[.~.aXM.y.u.p.:X=X X6.S x x j d 8 8 8 w 7 4 w p t f x / .X.XY L / R.lXfX`.3X3XU.",
"[ (.W.Q.lX~.g.i.4X>X.X4./ b j f d u 8 8 8 9 3 4 7 i r r f C 6.@XY J { g.lXfX_.3X2XY.",
"[ (.^.Q.zXgXV.!.:XXX) / N f u t t r 8 , 8 8 5 2 4 w e q d v #.2.U G L d.sXW.[.3X2XY.",
"[ L.E.aXvXjX>X;X9.( / N x p 9 8 8 8 , , > , 5 5 2 q e e e j A ..J F H X.T.M.[.3X2XY.",
"[ J.E.aXzX9X-XXX=.C N x j w 1 > < 6 , : = : = < 2 8 q r e d v V F F J Y %.%.C.2X2XY.",
"[ J.N.Q.lX1X-X2.U B k f p 0 2 : < 5 : = = = = = 2 5 q r r u z M F D G L ^ ( m.#X2XY.",
"] j.h.T.5X%XoXo.V n p p y 3 - : : : * * % % & & - < 8 q e y j l D F F L | O.9.#X2XY.",
"] J.n.m.,X+X8.U M k u r r 4 2 : = = % @ $ @ # $ - & 1 8 q r p k m D F L | O.9.2X2XY.",
":./.v.V.$X.X$.G m k p t w 2 - = % % $ @ o o o @ # & ; , 8 r p j m M F L | O.<XjX9XY.",
":.).yXC.$Xr.U M k f f t 9 2 : & % @ @ o o X o @ # $ & : 8 e y f m D F K { @.gXcX9XY.",
"q.yXrXC.@X*.Z m f f p r 6 < : * $ @ @ O X   X O $ @ % = , e y d l D F J { 4.xXcX0X6X",
",.uXyX,X7.} F j d u u q > : = * @ @ @ O X   . o @ @ $ * , r r p l D D G } 9.cXcX0X6X",
"<.qXQ.#X7.Y B f e e r q : : = * # @ @ @ X   . o @ @ $ * , e r d l B F F } #X0XjX0X{.",
"<.rX`.@X3.I B j e 8 q 8 , = : = # @ @ O X . X o @ @ @ * , e e d j M B J *.@X2X3X6XU.",
"<.v.P.@X3.P V l u 8 8 8 , : ; = % # # + O X X + # % $ * 6 q r d j m G Y 7.-X$X3XU.K.",
">.v.,X7.O.{ J B j q 8 8 8 6 - ; % # # # O O O @ # % * = 6 q r p j M K #.OX-X@X,XD.L.",
">.x.#X3.O.| H B l r 8 8 q 6 - ; * % # # @ @ @ # % * = 6 3 8 e d x B o..X*X-X@XI.q.A.",
">.R.,X4.| | P G M d q r r 9 2 2 ; ; & & % * * & * : , 8 3 9 r s v U 2.OX*X.XV.C.;.;.",
">.c.,X!.%.O.{ H M f u d u e 3 2 ; ; = = : : : : = 6 8 9 3 9 a s S $..X*XOX7.C.H.[ ` ",
">.x.<XgXf.O.| H B z d f d e 9 5 2 < = < , , , , 5 8 q 3 4 a s h (  X*X*X X=.W./.[ ` ",
">.z.8XkXM.^ | P V l j g d t e 9 3 3 : , 8 8 8 , 6 9 9 4 3 h h ~ |.&X&XOX7.s.^.L.[ ` ",
"1.rX~.xXR.^ O.P J v b b f d t w w e 8 q q q , 8 e 8 8 3 a ~ ) |.&X&XoX6.#.f.L.S.] ` ",
"<.qXaXxX~.$.| | L Z S S g g u t t u e r r 8 , y u e 0 7 s (  XoXOXoX X3.&.G.A.;.` ` ",
"1.yX~.jXsXf.+.| A A $.) S c f d d d y d d 8 8 u f p p i d ~ 2. X.X3.3.O.f.G.:.` ` ` ",
"1.pXfX0XgXR.%.^ O.^ 3. X( C z z f f f j d e r d j j g f g C ..4.7.+.O.O.g.F.;.` ` ` ",
":.fXgX9XhX~.g.+.O.| @..XXX$.C m x x l m l d d g k x x m m B J ..#.{  .$.h.J.[ ` ` ` ",
":.}.hX9X8XfXT.s.$.| (  XoX6./ Z F F D D m l z l x M M B B B J P | | $.f.N.S.] ` ` ` ",
"[ J.].8X8X`.^.h.d.O.O.7. XoX2.U F F F D F M M M M B F F F F H ^ | +.s.G.H.j.' ` ` ` ",
"' :.U.8X`.J.(.W.T.%.O._ |.oX.X#.J G G F F B F F F F G J G G A | ^ &.h.Z.A.;.` ` ` ` ",
"` ' 1.U.L.A.Z.^.W.M.&.O._  XOXXXX.Y Y U K J J G J J J Y U K { $.f.T.H.j.[ ` ` ` ` ` ",
"` ` ' A.L.J.:.L./.W.E.%.$.7.&X+X5.*.q.*.} I I I P H P } a.T o.f.W.sX}.,.` ` ` ` ` ` ",
"` ` ` A.].L.:.,.J.[.W.m.s.3.oX>XP.t.@Xr.5.#.@.@.| { { %.h.f.f.N.fXgX}.,.` ` ` ` ` ` ",
"` ` ` A.].`.w.] A.(./.N.g.4.V.!.!.,X#X#Xt.9.8.7.3.| ^ f.).W.W.^.}.}.L.;.` ` ` ` ` ` ",
"` ` ` A.6X7XD.] :.A.S.F.M.m.B.eXQ.I.I.C.H.I.t.@X7._ 3.m.[.{._.[.J.J.1.` ` ` ` ` ` ` ",
"` ` ` :.'.7XK.[ ' :.q.A.L.G.W.uXtXc.c.c.c.Q.C.#Xt.t.6.P.].6X6X_.w.;.] ` ` ` ` ` ` ` ",
"` ` ` [ U.7XK.] ` ' ] ;.S.J.).iXtXyXrXtXrXqXQ.C.E.P.#X3X6X9X6X_.;.` ` ` ` ` ` ` ` ` ",
"` ` ` [ K.7XD.] ` ` ` ` :.S.}.).v.v.l.b.z.tXrXv.v.R.,X2X9X9X6XU.[ ` ` ` ` ` ` ` ` ` ",
"` ` ` ] K.`.D.] ` ` ` ` ` 1.L.J.L.k.j.j.n.yXz.z.rXv.I.2X<X6X'.A.] ` ` ` ` ` ` ` ` ` ",
"` ` ` ' A.K.A.[ ` ` ` ` ` :.A.1.1.1.[ [ j.n.l.l.l.tX^.Y.I.].U.:.` ` ` ` ` ` ` ` ` ` "
};
