/* XPM */
static char *result[] = {
/* columns rows colors chars-per-pixel */
"20 20 236 2 ",
"   c #D64D1A",
".  c #E74212",
"X  c #E84410",
"o  c #E84712",
"O  c #EA4612",
"+  c #E74A16",
"@  c #EB4D12",
"#  c #EB4E12",
"$  c #E6461A",
"%  c #EB5113",
"&  c #EB5314",
"*  c #EB5215",
"=  c #EB5616",
"-  c #EC5614",
";  c #EC5615",
":  c #EB5A16",
">  c #ED5B16",
",  c #ED6017",
"<  c #ED6117",
"1  c #ED6317",
"2  c #ED6519",
"3  c #EE671C",
"4  c #EE6A19",
"5  c #EE691A",
"6  c #EF6A1A",
"7  c #EF6B1B",
"8  c #EE6E1A",
"9  c #EF701B",
"0  c #EF711B",
"q  c #EF721B",
"w  c #EF731C",
"e  c #EF751C",
"r  c #F07A1E",
"t  c #F07C1E",
"y  c #F17D1F",
"u  c #E94E2C",
"i  c #E65221",
"p  c #E64734",
"a  c #E55C3C",
"s  c #DD6829",
"d  c #E26622",
"f  c #EC6320",
"g  c #EE7121",
"h  c #E2712A",
"j  c #ED772A",
"k  c #ED782F",
"l  c #F07B24",
"z  c #F07C25",
"x  c #F17E25",
"c  c #E97239",
"v  c #DD525A",
"b  c #E45345",
"n  c #E45D44",
"m  c #E35F4E",
"M  c #E56646",
"N  c #E86245",
"B  c #E56D4E",
"V  c #DF6A66",
"C  c #DF7B75",
"Z  c #D7727B",
"A  c #DE7E7E",
"S  c #E16C61",
"D  c #E57561",
"F  c #E47860",
"G  c #E27A6F",
"H  c #F1821F",
"J  c #EC802A",
"K  c #F08020",
"L  c #F18120",
"P  c #F18520",
"I  c #F18621",
"U  c #F18821",
"Y  c #F18A22",
"T  c #F28B23",
"R  c #F38B24",
"E  c #F18728",
"W  c #F29023",
"Q  c #F29223",
"!  c #F29124",
"~  c #F39224",
"^  c #F29324",
"/  c #F49325",
"(  c #F39625",
")  c #F39827",
"_  c #F49D27",
"`  c #F49E26",
"'  c #F49F27",
"]  c #F59B28",
"[  c #F39D28",
"{  c #F49D28",
"}  c #F28F35",
"|  c #E99233",
" . c #F49832",
".. c #F29F34",
"X. c #F29F37",
"o. c #F4A228",
"O. c #F4A328",
"+. c #F5A329",
"@. c #F5A428",
"#. c #F5A429",
"$. c #F4A529",
"%. c #F5A629",
"&. c #F5A729",
"*. c #F5A62F",
"=. c #F5A829",
"-. c #F5AA2A",
";. c #F5AA2B",
":. c #F5AB2B",
">. c #F5AC2A",
",. c #F6AC2A",
"<. c #F6AD2A",
"1. c #F6AD2B",
"2. c #F5AB2D",
"3. c #F4A82F",
"4. c #F6AD2D",
"5. c #F4AE2D",
"6. c #F5AE2D",
"7. c #F5AD2E",
"8. c #F4AE2E",
"9. c #F5AE2E",
"0. c #F5AE2F",
"q. c #F5AF2F",
"w. c #F3A134",
"e. c #F3A234",
"r. c #F6A436",
"t. c #F6AA33",
"y. c #F7AD32",
"u. c #F5AB36",
"i. c #F5AC34",
"p. c #F4AC35",
"a. c #F5A63F",
"s. c #F5B43E",
"d. c #EC8544",
"f. c #EF8F42",
"g. c #F19A44",
"h. c #F19D4B",
"j. c #F09F4C",
"k. c #F09F4F",
"l. c #EA8652",
"z. c #E78759",
"x. c #F09351",
"c. c #F6B440",
"v. c #F6B345",
"b. c #F6B745",
"n. c #F6B646",
"m. c #F5A653",
"M. c #F6B257",
"N. c #F6BA52",
"B. c #F7BD55",
"V. c #F6BD56",
"C. c #E98F67",
"Z. c #E08175",
"A. c #E38576",
"S. c #F6B662",
"D. c #F5A87C",
"F. c #F8B872",
"G. c #F8C070",
"H. c #CE7891",
"J. c #039AFD",
"K. c #009AFE",
"L. c #019AFE",
"P. c #039AFE",
"I. c #069AFE",
"U. c #079AFE",
"Y. c #109AFD",
"T. c #159AFD",
"R. c #179AFC",
"E. c #1F9CFE",
"W. c #2199FC",
"Q. c #229AFC",
"!. c #259AFC",
"~. c #289AFC",
"^. c #3297FA",
"/. c #3F99F8",
"(. c #3F9FFC",
"). c #7F89DE",
"_. c #4B9AF6",
"`. c #469AF8",
"'. c #5899F2",
"]. c #6798ED",
"[. c #6E9AEC",
"{. c #4DA0FB",
"}. c #54A0F9",
"|. c #61A2F8",
" X c #DB8784",
".X c #DE8F84",
"XX c #D88A8B",
"oX c #CF8B96",
"OX c #D18194",
"+X c #D18195",
"@X c #D78B97",
"#X c #DB8C91",
"$X c #D48D9B",
"%X c #DC9D94",
"&X c #E19D8F",
"*X c #F7B697",
"=X c #C683A1",
"-X c #C58CA7",
";X c #CE9BAE",
":X c #C690B0",
">X c #C492B5",
",X c #C59AB2",
"<X c #C59BBB",
"1X c #CFA0AE",
"2X c #D5A2AB",
"3X c #D3A4AD",
"4X c #F9D088",
"5X c #FAD18C",
"6X c #FBD598",
"7X c #FAD699",
"8X c #F9D79A",
"9X c #FBD8A2",
"0X c #FBDCAF",
"qX c #FBD6B4",
"wX c #FCE1B3",
"eX c #8A97DD",
"rX c #8D98DD",
"tX c #9199DB",
"yX c #B095C3",
"uX c #BE9CC2",
"iX c #BFA1C0",
"pX c #B3A1CF",
"aX c #ABADDC",
"sX c #8097E3",
"dX c #8398E1",
"fX c #99A1E0",
"gX c #9BA5E2",
"hX c #99ACE7",
"jX c #C1AAC6",
"kX c #FDEBCC",
"lX c #FEE6D6",
"zX c #FDEDD1",
"xX c #FEECD0",
"cX c #FEF0DE",
"vX c #FFF3E0",
"bX c #FFF8EC",
/* pixels */
"K.K.K.K.K.K.K.K.K.K.K.K.K.K.K.K.K.K.K.K.",
"K.K.K.K.K.K.K.aXiX2X;XuXgXK.K.K.K.K.K.K.",
"K.K.K.K.K.jXC.J E x 7 : i G pXK.K.K.K.K.",
"K.K.K.K.%Xx.m.S.G.M. .L 6 & $ $XK.K.K.K.",
"K.K.K.&X*XqX0XxXkX4Xv.{ I 8 ; X #XK.K.K.",
"K.E.3XD.lXcXzXbXvX5Xc.;._ U 9 - . <XK.W.",
"K.hXd.F.9X7X8XwX6XN.0.1.-._ P 5 @ n K.K.",
"K.1Xz a.n.b.B.V.s.9.<.<.<.=.( t , o >X).",
"(.A.0 ) :.5.q.8.6...t.1.<.,.@.W e = A K.",
"}.B 4 ! =.<.<.7.| d h e.<.<.>.o.T 3 S K.",
"|.M 1 Y #.<.<.1.X.  s y.<.<.<.>.[ g V K.",
"{.F > K ` >.<.<.3.r.w.4.<.<.<.<.#.j Z K.",
"K.@X% w ! $.>.<.<.<.<.<.<.<.<.<.+.k H.K.",
"K.K.+ < y ~ ' &.>.<.<.<.<.<.<.,.] c K.K.",
"K.K.C # , q H ^ O.>.<.<.<.<.,.%.R .XK.K.",
"K.K.K.a O * 2 r Q #.2.i.p.u.*./ l.K.K.K.",
"K.K.K.K.m p u f l } g.j.k.h.f.z.Y.^.K.K.",
"K.K.K.K.K.OXv b N D Z. XXXoX,X_.Q.I.K.K.",
"K.K.K.K.K.L.fX:X+X=X-XyXtX[.`.~.R.U.L.K.",
"K.K.K.K.K.P.!.'.sXrXeXdX]./.T.J.L.L.K.K."
};
