/* XPM */
static char *result[] = {
/* columns rows colors chars-per-pixel */
"20 20 230 2 ",
"   c #E74E1B",
".  c #EB5714",
"X  c #EA5615",
"o  c #EA5715",
"O  c #E85916",
"+  c #EB5C14",
"@  c #EB5C16",
"#  c #E65119",
"$  c #E8561A",
"%  c #EC6218",
"&  c #EB6418",
"*  c #E8611D",
"=  c #EF6B1B",
"-  c #EB6B1E",
";  c #EE701A",
":  c #EE731B",
">  c #ED701C",
",  c #EE741C",
"<  c #EE771D",
"1  c #EE791D",
"2  c #EE7A1E",
"3  c #F0741D",
"4  c #E65421",
"5  c #E55E3C",
"6  c #EB6122",
"7  c #E76D23",
"8  c #E67325",
"9  c #EA7521",
"0  c #E87424",
"q  c #EE7B26",
"w  c #EA7E25",
"e  c #ED7B2F",
"r  c #F17E25",
"t  c #E7623D",
"y  c #E46A3F",
"u  c #EB6F3E",
"i  c #E97339",
"p  c #E66842",
"a  c #E46E46",
"s  c #E37756",
"d  c #E3735E",
"f  c #E77C5D",
"g  c #DF7B74",
"h  c #D8747A",
"j  c #E06F64",
"k  c #E27B6E",
"l  c #EF8824",
"z  c #EC802A",
"x  c #EE812A",
"c  c #E88629",
"v  c #E98B2B",
"b  c #EA8D2B",
"n  c #F08121",
"m  c #F08320",
"M  c #F08323",
"N  c #F18721",
"B  c #F18821",
"V  c #F18D22",
"C  c #F18C23",
"Z  c #F38B24",
"A  c #F18F24",
"S  c #F28F26",
"D  c #F18728",
"F  c #ED9029",
"G  c #ED932A",
"H  c #EE992C",
"J  c #F49325",
"K  c #F39725",
"L  c #F29726",
"P  c #F39726",
"I  c #F39D26",
"U  c #F49D26",
"Y  c #F49F26",
"T  c #F39D28",
"R  c #F59C28",
"E  c #F09E2C",
"W  c #F09E2D",
"Q  c #F39832",
"!  c #F49A32",
"~  c #F19E3B",
"^  c #F4A229",
"/  c #F4A32A",
"(  c #F5A428",
")  c #F5A529",
"_  c #F5A629",
"`  c #F4A62A",
"'  c #F5A62A",
"]  c #F5A72A",
"[  c #F2A22C",
"{  c #F3A52D",
"}  c #F4A72E",
"|  c #F5A62F",
" . c #F5A829",
".. c #F5A929",
"X. c #F6AB2A",
"o. c #F6AA2B",
"O. c #F6AB2B",
"+. c #F6AC2A",
"@. c #F6AD2A",
"#. c #F6AC2B",
"$. c #F5A82C",
"%. c #F4A82D",
"&. c #F5AA2C",
"*. c #F5AA2D",
"=. c #F6AA2C",
"-. c #F6AB2C",
";. c #F6AA2D",
":. c #F4A82E",
">. c #F5A92E",
",. c #F5AA2F",
"<. c #F5AC2C",
"1. c #F5AC33",
"2. c #F5AB35",
"3. c #F5AB36",
"4. c #F4AB37",
"5. c #F4AC35",
"6. c #F5AC35",
"7. c #F6AE34",
"8. c #F4AD3A",
"9. c #F3A93C",
"0. c #F6B03E",
"q. c #EC8443",
"w. c #EF8F41",
"e. c #F29D41",
"r. c #F19D4B",
"t. c #F09F4F",
"y. c #EA8652",
"u. c #E78758",
"i. c #F09351",
"p. c #F0A04B",
"a. c #F5A653",
"s. c #F6B256",
"d. c #F7B659",
"f. c #DF8077",
"g. c #DF827B",
"h. c #E98F67",
"j. c #E2826D",
"k. c #E18373",
"l. c #F6B662",
"z. c #F8BC66",
"x. c #F7B56E",
"c. c #F8BF6F",
"v. c #F5A87C",
"b. c #F9C37E",
"n. c #F8C67C",
"m. c #F8C87C",
"M. c #CE7891",
"N. c #009AFE",
"B. c #019AFE",
"V. c #029AFE",
"C. c #039AFE",
"Z. c #059AFD",
"A. c #049AFE",
"S. c #069AFE",
"D. c #079AFE",
"F. c #089AFE",
"G. c #0C9AFD",
"H. c #0E9AFD",
"J. c #0F9AFD",
"K. c #109AFD",
"L. c #129AFD",
"P. c #179AFD",
"I. c #1A9AFC",
"U. c #1B9AFD",
"Y. c #1F9CFE",
"T. c #2199FC",
"R. c #219AFC",
"E. c #239AFC",
"W. c #2F98FA",
"Q. c #2D9AFB",
"!. c #3297FA",
"~. c #359AFA",
"^. c #3898F8",
"/. c #7F89DE",
"(. c #4F98F4",
"). c #4D9AF5",
"_. c #4E9AF6",
"`. c #4E9DF8",
"'. c #6698EE",
"]. c #7397E8",
"[. c #779AE8",
"{. c #749EEE",
"}. c #649CF2",
"|. c #699CF0",
" X c #DB8783",
".X c #DE8F84",
"XX c #D6828B",
"oX c #D8868C",
"OX c #D98A89",
"+X c #C7849F",
"@X c #D38A90",
"#X c #DB8C90",
"$X c #D48D9A",
"%X c #D58F9B",
"&X c #DC9D94",
"*X c #E19D8F",
"=X c #F7B697",
"-X c #C58CA7",
";X c #CA9AAC",
":X c #CE9BAE",
">X c #D09EAA",
",X c #C693B2",
"<X c #C69BB9",
"1X c #D5A2AB",
"2X c #D3A4AD",
"3X c #F9C986",
"4X c #F9CF97",
"5X c #FBDBAE",
"6X c #FBD6B4",
"7X c #FCDBB6",
"8X c #8B97DD",
"9X c #8898DF",
"0X c #8E98DC",
"qX c #9799D7",
"wX c #B195C2",
"eX c #BE9CC2",
"rX c #BFA1C0",
"tX c #B3A1CF",
"yX c #ABADDC",
"uX c #B1A3D2",
"iX c #8697E0",
"pX c #9BA5E2",
"aX c #99ACE7",
"sX c #C1AAC6",
"dX c #FCE5C2",
"fX c #FCE4C5",
"gX c #FDE9CA",
"hX c #FDE7D0",
"jX c #FEE6D5",
"kX c #FEEEDA",
/* pixels */
"N.N.N.N.N.N.N.N.N.N.N.N.N.N.N.N.N.N.N.N.",
"N.N.N.N.N.N.N.yXrX1X:XeXpXB.N.N.N.N.N.N.",
"N.N.N.N.N.sXh.z D r = @ 4 k tXB.N.N.N.N.",
"N.N.N.N.&Xi.a.l.c.s.! N 3 %   $XB.N.N.N.",
"N.N.N.*X=X6X5XgXdXm.0./ L B , o #XA.N.N.",
"N.Y.2Xv.jXkXfXhX7Xz.7.;.$.^ K 2 O <XA.T.",
"B.aXq.x.4X3Xn.b.d.6.*.*.*.&.' P 1 p U.N.",
"L.>Xq ~ 9.4.8.2.,.>.>.>.>.*.=.` A & ,X/.",
"`.j.9 F E { >.>.>.>.>.>.>.>.;.o.I < g.D.",
"|.a 0 b E } >.>.>.>.*.>.>.>.*.O.^ n d F.",
"{.y 8 v W :.>.>.>.%.%.*.*.*.*.#.' M j A.",
"}.s 7 c H { :.>.>.>.>.-.*.*.-.#.] x h V.",
"W.oX* w G [ %.*.-.-.-.#.#.#.#.#.) e M.N.",
"L.^.# - l T ] #.#.@.@.@.#.#.@.+.R i V.N.",
"B.G.g X > C Y ..X.@.@.@.@.@.+._ Z .XN.N.",
"N.N.C.5 . : V U (  .<.1.5.3.| J y.N.N.N.",
"N.N.N.H.t + ; m S Q e.p.t.r.w.u.K.!.N.N.",
"N.N.N.V.P.f.$ 6 u f k. XOX@X;X).E.S.N.N.",
"N.N.N.N.V.J.uX%XXX+X-XwXqX[._.Q.I.F.B.N.",
"N.N.N.N.N.D.~.'.iX0X8X9X].(.R.Z.B.B.N.N."
};
