/* XPM */
static char *result[] = {
/* columns rows colors chars-per-pixel */
"44 58 205 2 ",
"   c #030000",
".  c #0B0403",
"X  c #130E0D",
"o  c #160100",
"O  c #17110D",
"+  c #0A101E",
"@  c #141211",
"#  c #1E1C1E",
"$  c #080C18",
"%  c #201A02",
"&  c #231F1C",
"*  c #23221E",
"=  c #040D25",
"-  c #091426",
";  c #111624",
":  c #191E2A",
">  c #051B35",
",  c #0D223D",
"<  c #142339",
"1  c #252525",
"2  c #262827",
"3  c #292926",
"4  c #2B2B2C",
"5  c #292827",
"6  c #31302E",
"7  c #282D36",
"8  c #343534",
"9  c #353A3C",
"0  c #3A3A3B",
"q  c #32343B",
"w  c #042342",
"e  c #0A2543",
"r  c #0A2B4C",
"t  c #072D51",
"y  c #0A2E52",
"u  c #0C3054",
"i  c #0A3358",
"p  c #383D45",
"a  c #0C3B65",
"s  c #3D4345",
"d  c #3F4650",
"f  c #064C7F",
"g  c #184469",
"h  c #444444",
"j  c #444649",
"k  c #4A4A4B",
"l  c #454A4B",
"z  c #51514F",
"x  c #414654",
"c  c #474C51",
"v  c #434A5A",
"b  c #4B4F55",
"n  c #4D5253",
"m  c #4C5559",
"M  c #545453",
"N  c #55565A",
"B  c #59595E",
"V  c #565A58",
"C  c #465164",
"Z  c #5D5E64",
"A  c #575C60",
"S  c #5B6264",
"D  c #5F696A",
"F  c #52627C",
"G  c #63656B",
"H  c #636B6C",
"J  c #696B6C",
"K  c #6B6C67",
"L  c #73736F",
"P  c #646A71",
"I  c #6A7275",
"U  c #6C777A",
"Y  c #727473",
"T  c #78777B",
"R  c #747C7E",
"E  c #787A7D",
"W  c #065B98",
"Q  c #33629A",
"!  c #066BB4",
"~  c #0070BC",
"^  c #0564A8",
"/  c #59759C",
"(  c #566680",
")  c #6E7480",
"_  c #7C7E82",
"`  c #767C85",
"'  c #6E7E97",
"]  c #0476C5",
"[  c #027ACB",
"{  c #017ED0",
"}  c #1277C5",
"|  c #807F8D",
" . c #778283",
".. c #7B8586",
"X. c #7E898B",
"o. c #7D838B",
"O. c #7E8A96",
"+. c #0285DC",
"@. c #0881D4",
"#. c #018AE5",
"$. c #0287E2",
"%. c #1F90EC",
"&. c #009AFE",
"*. c #0296F8",
"=. c #538ED4",
"-. c #5494DE",
";. c #4492E4",
":. c #838B8D",
">. c #8A8A8B",
",. c #858588",
"<. c #8E908F",
"1. c #848E90",
"2. c #898D95",
"3. c #859192",
"4. c #8A9393",
"5. c #8C959C",
"6. c #939394",
"7. c #96969A",
"8. c #929C9E",
"9. c #9B9C9C",
"0. c #979897",
"q. c #9EA09F",
"w. c #949FA1",
"e. c #999DA6",
"r. c #96A3A4",
"t. c #99A5A6",
"y. c #9BA5A9",
"u. c #9CA9AA",
"i. c #9DA4B4",
"p. c #A3A4A4",
"a. c #A5A6A9",
"s. c #A1ADAE",
"d. c #ACACAD",
"f. c #AFB0AB",
"g. c #ADAEB1",
"h. c #A2A6B1",
"j. c #A4B3B4",
"k. c #A9B6B7",
"l. c #A9B7B8",
"z. c #ACBABB",
"x. c #A7B7B8",
"c. c #B5B6B3",
"v. c #B9B8B5",
"b. c #B3B6B9",
"n. c #B2BDBE",
"m. c #BDBDBC",
"M. c #B7B8B2",
"N. c #C0BFBD",
"B. c #BFC1BB",
"V. c #C1C1BF",
"C. c #B3BEC1",
"Z. c #BBBDC1",
"A. c #B5C2C3",
"S. c #BCC4C5",
"D. c #BBC6C9",
"F. c #BBC9CA",
"G. c #B6C3C9",
"H. c #C3C4C4",
"J. c #CACBC6",
"K. c #C3C6C9",
"L. c #C2CCCE",
"P. c #CCCCCC",
"I. c #D3D3CE",
"U. c #C4CDD1",
"Y. c #CBCED3",
"T. c #CBCFD8",
"R. c #C5D1D2",
"E. c #CCD3D4",
"W. c #CDD6DA",
"Q. c #CED9DB",
"!. c #D4D5D4",
"~. c #DBDAD4",
"^. c #D2D6DB",
"/. c #D3DBDD",
"(. c #DBDDDD",
"). c #D7D8D2",
"_. c #E2E3DE",
"`. c #D5DEE1",
"'. c #DDDFE2",
"]. c #D6E0E1",
"[. c #DBE3E4",
"{. c #DDE5E9",
"}. c #DFE9EB",
"|. c #E3E4E3",
" X c #EAEAE6",
".X c #E4E5EB",
"XX c #E4EAEC",
"oX c #EBECEC",
"OX c #EEF1EF",
"+X c #E7F0EF",
"@X c #F3F3EE",
"#X c #E6EDF2",
"$X c #EBEEF2",
"%X c #F3ECF6",
"&X c #F0EEF9",
"*X c #EDF2F4",
"=X c #EEF1F8",
"-X c #F4F4F4",
";X c #F6F8F5",
":X c #FAFAF6",
">X c #F4F5F9",
",X c #F9F6FB",
"<X c #F5FAFA",
"1X c #FDFEFD",
"2X c #FAF4F6",
/* pixels */
"&.&.&.&.&.&.&.&.&.&.&.&.&.&.&.=.F M M V V M M / -.*.&.&.&.&.&.&.&.&.&.&.&.&.&.&.&.&.&.&.",
"&.&.&.&.&.&.&.&.&.&.&.&.&.&.! , ; 5 3 3 3 * 3 1 Q %.&.&.&.&.&.&.&.&.&.&.&.&.&.&.&.&.&.&.",
"&.&.&.&.&.&.&.&.&.&.&.&.&.[ - & 6 K L L L L L V 1 @.&.&.&.&.&.&.&.&.&.&.&.&.&.&.&.&.&.&.",
"&.&.&.&.&.&.&.&.&.&.&.&.&.] o Y 9.f.f.N.N.M.N.p.G e &.&.&.&.&.&.&.&.&.&.&.&.&.&.&.&.&.&.",
"&.&.&.&.&.&.&.&.&.&.&.&.&.] Z p.V._.'.|._._._.V.e.x #.&.&.&.&.&.&.&.&.&.&.&.&.&.&.&.&.&.",
"&.&.&.&.&.&.&.&.&.&.&.&.&.~ L N._.@X;X;X:X:X@X~.h.v #.&.&.&.@.r t t y t &.&.&.&.&.&.&.&.",
"&.&.&.&.&.&.&.&.&.&.&.&.{ = T J.@X:X1X1X1X1X;X~.y.x +.&.&.#.e . X @ .   g &.&.&.&.&.&.&.",
"&.&.&.&.] i r t y u u y e   T P.@X1X1X1X1X1X;X).7.p t &.&.t X 8 k z 8 1 ; &.&.&.&.&.&.&.",
"&.&.&.[ < 4 6 6 6 8 0 0 4 & ,.I.-X1X1X1X1X1X@XI.<.0 = $.a 1 z >.<.6.,.Y 8 < &.&.&.&.&.&.",
"&.&.+.> N >.7.9.w.9.6.| k K d.~.-X1X1X1X1X1X:X).0.h . r 4 ` a.N.H.H.N.a.T 4 r &.&.&.&.&.",
"&.&.e . E H.P.I.Y.H.v.9.J ,.H. X:X1X1X1X1X1X:X_.d.K 5 @ B q.P.|.|. X|.P.w.B : &.&.&.&.&.",
"&.*.  N g._.OX@XoX(.J.f.0.a.I.@X1X1X1X1X1X1X1X XJ.6.N * Y b.|.2X:X:X%X'.b.I ; u &.&.&.&.",
"&.&.  S Z.$X:X1X2X-X|.P.c.c.(.-X1X1X1X1X1X1X1X@X|.c.Y 0 | J.oX:X1X1X;X XK.,.j e &.&.&.&.",
"&.+.p O.K.*X1X1X:X1X,XoX!.P.|.:X1X1X1X1X1X1X1X1XOXP.0.| q.!.-X1X1X1X:XOXY.q.P 7 t &.&.&.",
"&.t c i.!.-X:X1X1X1X1X1X-X.X-X1X1X1X1X1X1X1X1X1X2X(.b.g.V.|.2X:X1X1X:X2X'.N.7.y r } &.&.",
"&.- S Z.|.;X1X1X1X1X1X1X1X1X,X1X1X1X1X1X1X1X1X1X,X X^.!.'.@X,X1X1X1X1X2XoX^.m.,.O t &.&.",
"C p 2.Y.@X:X:X1X1X1X1X1X1X1X1X1X1X1X1X1X1X1X1X1X:X-X XXX%X:X1X1X1X1X1X:X@XoX^.g.G y &.&.",
"h d y.(.:X:X1X1X1X1X1X1X1X1X1X1X1X1X1X1X1X1X1X1X1X>X-X-X:X,X1X1X1X1X1X1X:X;X.XN.) y &.&.",
"v ' a._.:X:X1X1X1X1X1X1X1X1X1X1X1X1X1X1X1X1X1X1X1X1X;X;X:X1X1X1X1X1X1X:X:X:XoXK._ t &.&.",
"A ' f._.:X:X1X:X1X1X1X1X1X1X1X1X1X1X1X1X1X1X:X1X,X,X>X,X1X1X1X1X1X1X1X1X:X:X-XP.| t &.&.",
"i.5.V.XX:X1X1X1X1X1X1X1X1X1X1X1X1X1X1X1X1X1X1X<X1X,X,X1X1X1X1X1X1X1X1X1X1X<X*XP.| y &.&.",
"h.g.~.-X:X:X:X1X1X1X1X1X1X1X1X1X1X1X1X1X1X1X1X1X1X1X,X1X1X1X1X1X1X1X1X1X1X<X-XE.` y &.&.",
"v.V. X2X:X1X1X1X1X1X1X1X1X1X1X1X1X1X1X1X1X1X,X,X;X1X1X1X1X1X1X1X1X1X1X:X1X<X*XL.` y ;.&.",
"N.P.@X1X1X1X1X1X1X1X1X1X1X1X1X1X1X1X1X1X1X1X1X<X<X1X1X1X1X1X1X1X1X1X1X1X1X1XOXK.` i y &.",
"N.I.@X1X:X1X:X1X1X1X1X1X1X1X1X1X1X1X,X1X1X1X1X>X;X,X1X1X1X1X1X1X1X1X1X1X1X<X*XK.U t t &.",
"B.I.@X1X1X1X1X1X1X1X1X1X1X1X1X1X1X1X1X1X1X1X<X>X,X1X1X1X1X1X1X1X1X1X1X1X1X1XoXD.` t t t ",
"m.I.;X1X1X1X1X1X1X1X1X1X1X1X1X1X1X1X1X;X,X1X<X>X;X1X1X1X1X1X1X1X1X1X1X1X1X<X*XP.2.d t t ",
"N.I.@X1X1X1X1X1X1X1X1X1X1X1X1X1X1X1X,X;X<X;X<X>X>X<X1X1X1X1X1X1X1X1X1X1X1X1X,X{.g.P t C ",
"N.I.;X1X1X1X1X1X1X1X1X1X1X1X1X1X1X,X;X-X;X<X>X*X>X,X1X1X1X1X1X1X1X1X1X1X1X1X1X@XP.7.N w ",
"m.I.:X1X1X1X1X1X1X1X1X1X1X1X1X1X1X1X-X%X-X>X>X=X*X<X1X1X1X1X1X1X1X1X1X1X1X1X1X,X`.h.B w ",
"N.!.;X1X1X1X1X1X1X1X1X1X1X1X1X1X1X,X-X-X;X;X=X*X*X<X1X1X1X1X1X1X1X1X1X1X1X1X1X1X|.a.M w ",
"V.!.<X1X1X1X1X1X1X1X1X1X1X1X1X1X1X1X;X-X<X;X*X#X*X>X1X1X1X1X1X1X1X1X1X1X1X1X1X,X'.e.h w ",
"V.^.<X1X1X1X1X1X1X1X1X1X,X1X1X1X1X1X:X;X:X*X{.[.#X>X1X1X1X1X1X1X1X1X1X1X1X1X1X,X(.6.0 w ",
"B.!.;X1X1X1X1X1X1X1X1X1X:X:X1X1X1X1X1X<X;X$X`.Q..X>X1X1X1X1X1X1X1X1X1X1X1X1X1X,X!.1.0 w ",
"H.!.-X1X1X1X1X1X1X<X1X<X@X:X1X1X1X:X1X1X>X$X^.E.}.>X1X1X1X1X1X1X1X1X1X1X1X1X1X-XP.E w w ",
"m.!.-X:X:X,X1X1X1X1X<X;X;X1X1X:X:X1X1X1X>XXXW.E.[.*X1X:X1X1X1X1X1X1X1X1X1X1X1XoXD.Y w w ",
"m.E.*X;X1X1X1X1X<X1X>X-X-X;X1X1X1X1X1X1X>X#XW.T.[.=X:X1X1X1X1X1X1X1X1X1X1X1X1X XB.I w w ",
"v.H.{.$X;X<X1X1X1X<X*XoX-X;X:X1X1X1X1X,X&X.XT.U.].*X1X1X1X1X1X1X1X1X1X1X1X1X,X[.x.H w w ",
"k.k.E.].*X,X1X1X;X*X.XXX$X;X,X1X1X1X1X1X&X.XT.D.E.XX1X1X1X1X1X1X1X1X1X1X1X1X;X/.u.H w w ",
"p.9.B.W.XX,X1X,X;XoX(.`.XX*X:X1X1X1X,X,X&X.XT.C.F.{.;X1X1X1X1X1X1X1X1X1X1X1X$XL.u.H w w ",
"Z 4.l.U..X<X,X,X-X X^.Q.XX-X>X,X1X1X,X,X%X.XT.C.S.[.;X1X1X1X1X1X1X1X1X1X1X1XXXA.r.H w w ",
"M 1.j.F.{.>X,X2X%X X^.Q.XX*X>X1X1X1X,X>X%X.XT.C.S.[.;X,X1X1X1X1X1X1X1X1X1X:X{.z.q.D w w ",
"M ..i.F.'.>X2X2X2X XW.W.{.#X<X<X1X,X,X,X%X.XT.C.S.].=X1X1X1X1X1X1X1X1X1X1X:X(.j.3.S w w ",
"h l 5.C.^.#X>X,X-X.XW.U.].#X>X<X1X,X,X>X%X.X^.Z.D.[.>X<X1X,X1X1X1X1X1X1X,XoXR.t.U w w w ",
"h q X.j.U.'.&X,X;X|.R.G.R.}.*X>X<X,X>X&X&X#X{.F.F.].*X<X1X1X1X1X1X1X1X,XoX(.A.q.I w w w ",
"h 6 ` u.G.`.#X,X-X{.R.A.U.[.$X>X>X>X>X>X=X=X}.Q.U.].$X>X<X<X<X1X1X1X1X*X].D.l.r.I 9 w w ",
"C 6 U r.C.Q.#X<X=X}.F.A.F.'.#X>X=X>X=X=X=X=X#XQ.R.].+X*X<X<X<X1X1X1X;X|.R.B.z.u.R s w w ",
"&.e I w.C.Q.+X=X+X[.F.C.F.`.XX#X=X=X#X=X#X#X}.Q.F.`.oX*X*X<X<X1X1X1X*X/.S.n.z.s...k w w ",
"&.; l 3.l.R.{.#X}.Q.F.B.G.R.}.}.}.}.}.}.}.}.}.F.L.^.{.oX#X*X+X*X<X*X}.R.B.B.x.u. .j w w ",
"&.y p ..u.F.W.Q.Q.F.A.z.A.F.Q.Q.Q.Q.Q.Q.Q.Q.].F.S.L.^./.[.].].[.{.].W.G.A.x.x.3.H 9 w w ",
"&.&.. V w.z.A.D.A.A.z.x.B.G.G.G.G.G.F.G.G.G.F.G.n.A.F.F.L.L.L.L.R.F.G.z.x.j.r.) n w w , ",
"&.&.  n 5.j.z.z.B.l.k.x.x.x.B.x.A.x.B.x.B.A.x.x.l.z.C.C.n.z.z.A.B.x.z.j.x.s.X.S 8 < u V.",
"&.&.  n O.j.x.x.x.x.x.x.x.x.k.k.x.j.x.x.j.x.x.x.k.k.k.x.l.l.k.k.l.k.j.j.s.r.U l O ^ &.&.",
"&.&.w s X.u.j.j.j.j.j.j.j.j.j.j.j.j.j.j.s.j.j.j.j.j.j.j.j.j.j.j.k.j.j.j.u. .S 8 + ! &.&.",
"&.&.&.* I 8.q.w.r.r.t.r.t.t.t.t.t.r.u.u.u.u.u.u.t.u.u.u.y.u.u.u.u.u.u.r.3.V s ; W &.&.&.",
"&.&.&.  m U  .R  . . . ... ......... .X.X.X.X.O.3.3.:.3.:.3.3.4.3.3.3.X.n 1 X f &.&.&.&.",
"&.&.&., @ * 2 2 2 1 1 1 1 2 2 2 2 3 3 4 s l m S D H D H K H H H H I J 0 X . $ W &.&.&.&.",
"&.&.&.&.z z z z z M M n M z z n n n n n M M M V V M V M M V M V V V V M M n F &.&.&.&.&."
};
